<svg width="59" height="59" fill="none" xmlns="http://www.w3.org/2000/svg"><circle cx="29.444" cy="29.102" r="29" fill="#fff"/><path fill-rule="evenodd" clip-rule="evenodd" d="M39.11 1.752a29.063 29.063 0 0 1 13.165 9.467l-13.165 6.69V1.751Zm13.092 45.326-13.184-6.654v16.06a29.06 29.06 0 0 0 13.184-9.406Zm-32.425 9.374A29.062 29.062 0 0 1 6.671 47.06l13.106-6.765v16.157Zm0-54.7V17.91l-13.17-6.683a29.063 29.063 0 0 1 13.17-9.474Z" fill="#2B3647"/><path fill-rule="evenodd" clip-rule="evenodd" d="M23.338.746a29.115 29.115 0 0 1 6.106-.644c2.094 0 4.137.222 6.105.644v22.251h22.25c.423 1.968.645 4.01.645 6.105 0 2.095-.222 4.137-.644 6.106H35.549v22.25a29.097 29.097 0 0 1-6.105.644c-2.095 0-4.137-.222-6.106-.643V35.207H1.088a29.115 29.115 0 0 1-.644-6.106c0-2.094.222-4.137.643-6.105h22.251V.747Zm30.085 12.042a28.981 28.981 0 0 1 2.002 3.416l-6.648 3.232h-8.65l13.296-6.648Zm3.384 25.942h-8.03l6.6 3.365a28.823 28.823 0 0 0 1.43-3.365ZM5.503 45.473 18.76 38.77h-8.65l-6.635 3.255a28.977 28.977 0 0 0 2.028 3.45ZM2.093 19.44a28.78 28.78 0 0 1 1.449-3.393l6.568 3.393H2.093Z" fill="#EC0044"/></svg>